<?xml version="1.0" encoding="UTF-8"?>
<svg width="64px" height="64px" viewBox="0 0 64 64" version="1.1" xmlns="http://www.w3.org/2000/svg" xmlns:xlink="http://www.w3.org/1999/xlink">
    <!-- Generator: Sketch 49.2 (51160) - http://www.bohemiancoding.com/sketch -->
    <title>instagram-logo</title>
    <desc>Created with Sketch.</desc>
    <defs></defs>
    <g id="Page-1" stroke="none" stroke-width="1" fill="none" fill-rule="evenodd">
        <g id="instagram-logo" fill="#FFFFFF" fill-rule="nonzero">
            <circle id="Oval" cx="48.8" cy="15.2" r="3.8"></circle>
            <path d="M32,16.1 C23.2,16.1 16.1,23.2 16.1,32 C16.1,40.8 23.2,47.9 32,47.9 C40.8,47.9 47.9,40.8 47.9,32 C47.9,23.2 40.8,16.1 32,16.1 Z M32,42.9 C26,42.9 21.1,38 21.1,32 C21.1,26 26,21.1 32,21.1 C38,21.1 42.9,26 42.9,32 C42.9,38 38,42.9 32,42.9 Z" id="Shape"></path>
            <path d="M63.8,19.7 C63.7,16.6 63.2,14.1 62.3,11.7 C61.4,9.3 60.1,7.4 58.3,5.6 C56.5,3.8 54.6,2.6 52.2,1.6 C49.8,0.7 47.4,0.2 44.2,0.1 C41.1,0 40,0 32,0 C24,0 22.9,0 19.7,0.2 C16.6,0.3 14.1,0.8 11.7,1.7 C9.3,2.6 7.4,3.9 5.6,5.7 C3.8,7.5 2.6,9.4 1.6,11.8 C0.7,14.2 0.2,16.6 0.1,19.8 C0,22.9 0,24 0,32 C0,40 0,41.1 0.2,44.3 C0.3,47.4 0.8,49.9 1.7,52.3 C2.6,54.7 3.9,56.6 5.7,58.4 C7.5,60.2 9.4,61.4 11.8,62.4 C14.2,63.3 16.6,63.8 19.8,63.9 C22.9,64 24,64 32,64 C40,64 41.1,64 44.3,63.8 C47.4,63.7 49.9,63.2 52.3,62.3 C54.7,61.4 56.6,60.1 58.4,58.3 C60.2,56.5 61.4,54.6 62.4,52.2 C63.3,49.8 63.8,47.4 63.9,44.2 C64,41.1 64,40 64,32 C64,24 64,22.9 63.8,19.7 Z M58.8,44 C58.7,46.6 58.3,48.5 57.6,50.4 C56.9,52.1 56.1,53.5 54.8,54.8 C53.5,56.1 52.2,57 50.4,57.6 C48.6,58.3 46.6,58.7 44,58.8 C41,59 39.9,59 32,59 C24.1,59 23,59 20,58.8 C17.4,58.7 15.5,58.3 13.6,57.6 C11.9,56.9 10.5,56.1 9.2,54.8 C7.9,53.5 7,52.2 6.4,50.4 C5.7,48.6 5.3,46.6 5.2,44 C5,40.9 5,39.9 5,32 C5,24.1 5,23.1 5.2,20 C5.3,17.4 5.7,15.5 6.4,13.6 C7.1,11.9 7.9,10.5 9.2,9.2 C10.5,7.9 11.8,7 13.6,6.4 C15.4,5.7 17.4,5.3 20,5.2 C23,5 24.1,5 32,5 C39.9,5 41,5 44,5.2 C46.6,5.3 48.5,5.7 50.4,6.4 C52.1,7.1 53.5,7.9 54.8,9.2 C56.1,10.5 57,11.8 57.6,13.6 C58.3,15.4 58.7,17.4 58.8,20 C59,23 59,24.1 59,32 C59,39.9 59,41 58.8,44 Z" id="Shape"></path>
        </g>
    </g>
</svg>