<?xml version="1.0" encoding="UTF-8"?>
<svg width="194px" height="84px" viewBox="0 0 194 84" version="1.1" xmlns="http://www.w3.org/2000/svg" xmlns:xlink="http://www.w3.org/1999/xlink">
    <!-- Generator: Sketch 49.2 (51160) - http://www.bohemiancoding.com/sketch -->
    <title>Shape</title>
    <desc>Created with Sketch.</desc>
    <defs></defs>
    <g id="Page-1" stroke="none" stroke-width="1" fill="none" fill-rule="evenodd">
        <g id="soundcloud-seeklogo.com" fill="#FF7700" fill-rule="nonzero">
            <path d="M9.375,43.578 C8.962,43.578 8.623,43.91 8.571,44.368 L6.668,61.71 L8.571,78.669 C8.623,79.119 8.962,79.451 9.375,79.451 C9.781,79.451 10.113,79.127 10.179,78.669 L12.333,61.71 L10.179,44.36 C10.112,43.903 9.78,43.578 9.375,43.578 Z M2.234,50.225 C1.828,50.225 1.511,50.535 1.459,50.977 L0.043,61.71 L1.459,72.252 C1.511,72.693 1.828,73.004 2.234,73.004 C2.625,73.004 2.942,72.693 3.008,72.252 L4.675,61.71 L3.008,50.977 C2.942,50.534 2.625,50.225 2.234,50.225 Z M16.958,40.178 C16.449,40.178 16.043,40.576 15.991,41.129 L14.191,61.71 L15.991,81.531 C16.043,82.085 16.449,82.482 16.958,82.482 C17.459,82.482 17.865,82.085 17.932,81.539 L19.975,61.71 L17.932,41.129 C17.865,40.576 17.459,40.178 16.958,40.178 Z M24.607,39.455 C24.009,39.455 23.523,39.934 23.478,40.569 L21.774,61.711 L23.478,82.167 C23.522,82.801 24.009,83.279 24.607,83.279 C25.205,83.279 25.691,82.8 25.743,82.167 L27.677,61.711 L25.743,40.562 C25.692,39.934 25.205,39.455 24.607,39.455 Z M33.614,42.088 C33.57,41.365 33.01,40.819 32.323,40.819 C31.622,40.819 31.069,41.365 31.025,42.103 L29.417,61.71 L31.025,82.335 C31.069,83.064 31.623,83.619 32.323,83.619 C33.01,83.619 33.57,83.064 33.614,82.335 L35.444,61.71 L33.614,42.088 Z M40.099,28.36 C39.317,28.36 38.675,28.994 38.638,29.813 L37.126,61.725 L38.638,82.342 C38.675,83.147 39.317,83.788 40.099,83.788 C40.866,83.788 41.508,83.144 41.559,82.334 L41.559,82.342 L43.263,61.725 L41.559,29.806 C41.507,28.995 40.866,28.36 40.099,28.36 Z M47.814,21.005 C46.936,21.005 46.221,21.721 46.184,22.621 L44.775,61.836 L46.184,82.328 C46.221,83.221 46.936,83.935 47.814,83.935 C48.677,83.935 49.4,83.22 49.437,82.32 L49.437,82.328 L51.038,61.836 L49.437,22.621 C49.4,21.721 48.678,21.005 47.814,21.005 Z M55.833,17.465 C54.859,17.465 54.07,18.247 54.041,19.25 L52.72,61.732 L54.041,82.009 C54.07,82.997 54.86,83.78 55.833,83.78 C56.792,83.78 57.581,82.998 57.618,82.003 L57.618,82.019 L59.1,61.732 L57.618,19.25 C57.581,18.247 56.792,17.465 55.833,17.465 Z M65.747,17.819 C65.71,16.727 64.854,15.871 63.792,15.871 C62.722,15.871 61.859,16.727 61.837,17.819 L60.613,61.733 L61.837,81.893 C61.8506616,82.963594 62.7213209,83.824901 63.792,83.827 C64.854,83.827 65.71,82.972 65.747,81.88 L67.119,61.734 L65.747,17.819 Z M65.747,81.878 L65.747,81.893 L65.747,81.878 Z M71.811,16.83 C70.653,16.83 69.716,17.76 69.694,18.94 L68.572,61.732 L69.694,81.701 C69.716,82.874 70.653,83.805 71.811,83.805 C72.969,83.805 73.899,82.874 73.936,81.688 L73.936,81.709 L75.19,61.733 L73.936,18.941 C73.898,17.76 72.969,16.83 71.811,16.83 Z M79.896,18.232 C78.642,18.232 77.639,19.235 77.609,20.511 L76.591,61.738 L77.615,81.575 C77.637,82.837 78.64,83.84 79.894,83.84 C81.148,83.84 82.159,82.837 82.181,81.561 L82.181,81.577 L83.331,61.741 L82.181,20.506 C82.1733095,19.2490124 81.15301,18.2336247 79.896,18.232 Z M89.397,10.648 C88.9972449,10.3809093 88.5277664,10.2372837 88.047,10.235 C87.56,10.235 87.103,10.382 86.719,10.633 C86.0279424,11.0844999 85.6072138,11.8505859 85.597,12.676 L85.582,13.141 L84.667,61.73 C84.667,61.759 85.596,81.449 85.596,81.449 L85.596,81.529 C85.626,82.084 85.832,82.591 86.172,82.99 C86.6315717,83.55334 87.3189877,83.8816417 88.046,83.885 C88.71,83.885 89.315,83.604 89.757,83.161 C90.199,82.718 90.48,82.113 90.495,81.441 L90.598,79.486 L91.528,61.738 L90.495,12.676 C90.4792637,11.8620106 90.0700129,11.1061266 89.397,10.648 Z M90.496,81.45 L90.496,81.441 L90.496,81.45 L90.496,81.436 L90.496,81.441 L90.496,81.45 Z M97.488,6.001 C96.5505141,5.4269596 95.3510465,5.5163459 94.509,6.223 C93.9055513,6.71540508 93.5517093,7.45019495 93.543,8.229 L93.536,8.502 L92.468,61.747 L93.014,71.588 L93.545,81.17 C93.56,82.586 94.733,83.76 96.155,83.76 C97.58,83.76 98.753,82.586 98.774,81.149 L98.774,81.17 L99.932,61.747 L98.774,8.229 C98.7568304,7.31464643 98.2711617,6.4732235 97.488,6.001 Z M169.428,36.416 C166.174,36.416 163.069,37.072 160.237,38.26 C158.348,16.853 140.393,0.063 118.5,0.063 C113.301656,0.068903465 108.148567,1.02915467 103.297,2.896 C101.504,3.589 101.032,4.305 101.011,5.692 L101.011,81.089 C101.032,82.542 102.159,83.671 103.577,83.811 C103.636,83.819 169.429,83.811 169.429,83.811 C182.552,83.811 193.183,73.299 193.183,60.176 C193.182,47.053 182.551,36.416 169.428,36.416 Z" id="Shape"></path>
        </g>
    </g>
</svg>